<svg width="18" height="12" viewBox="0 0 18 12" fill="none" xmlns="http://www.w3.org/2000/svg">
<path d="M5.90323 11.2174C8.75373 11.2174 11.0645 8.88147 11.0645 5.99998C11.0645 3.1185 8.75373 0.782593 5.90323 0.782593C3.05273 0.782593 0.741943 3.1185 0.741943 5.99998C0.741943 8.88147 3.05273 11.2174 5.90323 11.2174Z" fill="#E7001A"/>
<path d="M12.0968 11.2174C14.9473 11.2174 17.2581 8.88147 17.2581 5.99998C17.2581 3.1185 14.9473 0.782593 12.0968 0.782593C9.24628 0.782593 6.93549 3.1185 6.93549 5.99998C6.93549 8.88147 9.24628 11.2174 12.0968 11.2174Z" fill="#F49B1C"/>
<path opacity="0.3" fill-rule="evenodd" clip-rule="evenodd" d="M9.00001 1.82568C10.2536 2.77755 11.0645 4.29303 11.0645 5.99997C11.0645 7.70692 10.2536 9.2224 9.00001 10.1743C7.74638 9.2224 6.93549 7.70692 6.93549 5.99997C6.93549 4.29303 7.74638 2.77755 9.00001 1.82568Z" fill="#E7001A"/>
</svg>
