<svg width="8" height="12" viewBox="0 0 8 12" fill="none" xmlns="http://www.w3.org/2000/svg">
<path d="M6.09302 4.75H1.81977C1.61181 4.75 1.3996 4.79566 1.2093 4.918C0.970051 4.97828 0.797205 5.08522 0.686046 5.254C0.394609 5.51834 0.259412 5.96462 0.25 6.514V9.79C0.259412 10.3398 0.394609 10.7857 0.686046 11.05C0.797205 11.2192 0.970051 11.3261 1.2093 11.386C1.3996 11.5075 1.61181 11.554 1.81977 11.554H6.09302C7.17327 11.5445 7.73246 10.9646 7.75 9.79V6.514C7.73246 5.33695 7.17327 4.75905 6.09302 4.75V4.75Z" fill="#E3001B"/>
<path d="M1.02453 4.194C1.19368 4.13421 1.32937 4.08881 1.46058 4.026C1.71441 2.90145 2.76902 2.03229 3.98965 2.01C5.29806 2.03229 6.3531 2.90269 6.60593 4.026C6.99002 4.13297 7.31103 4.28568 7.56523 4.53C7.5714 4.29063 7.56207 4.07643 7.56523 3.858C7.37506 2.12391 5.86671 0.75 3.98965 0.75C2.13422 0.75 0.5928 2.21058 0.50128 4.026C0.501626 4.19406 0.498234 4.35831 0.50128 4.53C0.663189 4.39958 0.844684 4.28237 1.02454 4.194H1.02453Z" fill="#E3001B"/>
</svg>
