<svg width="18" height="18" viewBox="0 0 18 18" fill="none" xmlns="http://www.w3.org/2000/svg">
<path fill-rule="evenodd" clip-rule="evenodd" d="M2.56321 2.78329C1.64954 2.98777 1 3.79874 1 4.73501V13.4577C1 14.3728 1.60515 15.1174 2.4043 15.368V5.52402C2.4043 5.06851 2.71214 4.67055 3.15304 4.5561L11.7487 2.3248C12.382 2.16041 13 2.63844 13 3.29273V4.99998H15V2.49704C15 1.21631 13.813 0.265612 12.5632 0.545316L2.56321 2.78329Z" fill="#DCDCE2"/>
<path fill-rule="evenodd" clip-rule="evenodd" d="M15 5H3V14H15V5ZM3 3C1.89543 3 1 3.89543 1 5V14C1 15.1046 1.89543 16 3 16H15C16.1046 16 17 15.1046 17 14V5C17 3.89543 16.1046 3 15 3H3Z" fill="#DCDCE2"/>
<circle cx="11.5" cy="9.5" r="1.5" fill="white"/>
</svg>
