<svg width="19" height="10" viewBox="0 0 19 10" fill="none" xmlns="http://www.w3.org/2000/svg">
<mask id="path-1-inside-1" fill="white">
<path fill-rule="evenodd" clip-rule="evenodd" d="M0.695153 6.07637C0.152072 5.45876 0.152071 4.54124 0.695152 3.92363C2.8047 1.52459 5.96621 0 9.5 0C13.0338 0 16.1953 1.52459 18.3048 3.92363C18.8479 4.54124 18.8479 5.45876 18.3048 6.07637C16.1953 8.47541 13.0338 10 9.5 10C5.96621 10 2.8047 8.47541 0.695153 6.07637Z"/>
</mask>
<path d="M18.3048 6.07637L19.8068 7.39706L18.3048 6.07637ZM2.19708 5.24432C3.93174 3.27161 6.54849 2 9.5 2V-2C5.38393 -2 1.67766 -0.222427 -0.806774 2.60295L2.19708 5.24432ZM9.5 2C12.4515 2 15.0683 3.27161 16.8029 5.24432L19.8068 2.60295C17.3223 -0.222427 13.6161 -2 9.5 -2V2ZM16.8029 4.75568C15.0683 6.72839 12.4515 8 9.5 8V12C13.6161 12 17.3223 10.2224 19.8068 7.39706L16.8029 4.75568ZM9.5 8C6.54849 8 3.93174 6.72839 2.19708 4.75568L-0.806774 7.39706C1.67766 10.2224 5.38393 12 9.5 12V8ZM16.8029 5.24432C16.6819 5.1067 16.6819 4.8933 16.8029 4.75568L19.8068 7.39706C21.0139 6.02422 21.0139 3.97579 19.8068 2.60295L16.8029 5.24432ZM-0.806774 2.60295C-2.01395 3.97579 -2.01395 6.02422 -0.806774 7.39706L2.19708 4.75568C2.3181 4.89331 2.3181 5.1067 2.19708 5.24432L-0.806774 2.60295Z" fill="#DCDCE2" mask="url(#path-1-inside-1)"/>
</svg>
