<svg width="18" height="18" viewBox="0 0 18 18" fill="none" xmlns="http://www.w3.org/2000/svg">
<circle cx="9" cy="9" r="8" stroke="#BABAC2" stroke-width="2"/>
<path d="M9.228 4.752C10.06 4.752 10.728 4.98 11.232 5.436C11.744 5.884 12 6.504 12 7.296C12 8.08 11.748 8.68 11.244 9.096C10.74 9.504 10.072 9.708 9.24 9.708L9.192 10.632H7.716L7.656 8.592H8.196C8.892 8.592 9.428 8.5 9.804 8.316C10.18 8.132 10.368 7.796 10.368 7.308C10.368 6.956 10.264 6.676 10.056 6.468C9.856 6.26 9.58 6.156 9.228 6.156C8.86 6.156 8.572 6.256 8.364 6.456C8.164 6.656 8.064 6.932 8.064 7.284H6.48C6.472 6.796 6.576 6.36 6.792 5.976C7.008 5.592 7.324 5.292 7.74 5.076C8.164 4.86 8.66 4.752 9.228 4.752ZM8.448 13.5C8.144 13.5 7.892 13.408 7.692 13.224C7.5 13.032 7.404 12.796 7.404 12.516C7.404 12.236 7.5 12.004 7.692 11.82C7.892 11.628 8.144 11.532 8.448 11.532C8.744 11.532 8.988 11.628 9.18 11.82C9.372 12.004 9.468 12.236 9.468 12.516C9.468 12.796 9.372 13.032 9.18 13.224C8.988 13.408 8.744 13.5 8.448 13.5Z" fill="#BABAC2"/>
</svg>
