<svg width="18" height="18" viewBox="0 0 18 18" fill="none" xmlns="http://www.w3.org/2000/svg">
<path d="M8.96588 3.60312C12.1455 3.60311 14.7952 4.15874 14.2653 1.98422C13.7586 -0.0953445 8.96594 1.44453 8.96588 3.60312Z" stroke="#95959A" stroke-width="2"/>
<path d="M9.03376 3.60312C5.8541 3.60311 3.20447 4.15874 3.73433 1.98422C4.24105 -0.0953445 9.0337 1.44453 9.03376 3.60312Z" stroke="#95959A" stroke-width="2"/>
<path d="M2.33333 8.33329V16C2.33333 16.5522 2.78105 17 3.33333 17H6.77778H12.5556H14.6667C15.219 17 15.6667 16.5522 15.6667 16V8.33329M2.33333 8.33329V8.33329C1.59695 8.33329 1 7.73634 1 6.99996V4.66663C1 4.11434 1.44772 3.66663 2 3.66663H6.77778H12.5556H16C16.5523 3.66663 17 4.11434 17 4.66663V7.33329C17 7.88558 16.5523 8.33329 16 8.33329H15.6667M2.33333 8.33329H15.6667" stroke="#95959A" stroke-width="2"/>
</svg>
