<svg width="11" height="13" viewBox="0 0 11 13" fill="none" xmlns="http://www.w3.org/2000/svg">
<path d="M9.24242 3.87006C9.23167 3.94158 9.21938 4.01471 9.20556 4.08983C8.73055 6.62759 7.10546 7.50427 5.02994 7.50427H3.97317C3.71935 7.50427 3.50546 7.69607 3.46591 7.9566L2.92485 11.5273L2.77164 12.5394C2.74591 12.7104 2.87263 12.8647 3.03852 12.8647H4.91282C5.13477 12.8647 5.32332 12.6969 5.35826 12.4691L5.37669 12.37L5.72959 10.0396L5.75225 9.91177C5.78681 9.6832 5.97573 9.51538 6.19769 9.51538H6.47801C8.29394 9.51538 9.71551 8.74818 10.131 6.52809C10.3046 5.60066 10.2147 4.82626 9.75545 4.28163C9.61644 4.1174 9.44402 3.98114 9.24242 3.87006L9.24242 3.87006Z" fill="#99C6E5"/>
<path d="M8.7455 3.66387C8.67292 3.64189 8.59804 3.62191 8.52124 3.60393C8.44406 3.58635 8.36495 3.57076 8.28354 3.55718C7.99862 3.50923 7.68642 3.48645 7.35196 3.48645H4.52879C4.45929 3.48645 4.39324 3.50283 4.33411 3.5324C4.20393 3.59753 4.10716 3.7258 4.08374 3.88284L3.48316 7.84111L3.46588 7.95659C3.50543 7.69606 3.71932 7.50426 3.97315 7.50426H5.02992C7.10544 7.50426 8.73053 6.62718 9.20554 4.08982C9.21975 4.0147 9.23165 3.94157 9.2424 3.87005C9.12221 3.80372 8.99203 3.74698 8.85187 3.69863C8.81731 3.68664 8.7816 3.67505 8.74551 3.66386L8.7455 3.66387Z" fill="#CCE2F2"/>
<path d="M4.08379 3.88286C4.10722 3.72582 4.20398 3.59755 4.33416 3.53282C4.39368 3.50325 4.45934 3.48687 4.52885 3.48687H7.35202C7.68648 3.48687 7.99867 3.50964 8.2836 3.55759C8.36501 3.57118 8.44411 3.58676 8.5213 3.60435C8.59809 3.62233 8.67298 3.64231 8.74555 3.66428C8.78165 3.67547 8.81736 3.68706 8.8523 3.69865C8.99246 3.747 9.12264 3.80414 9.24283 3.87007C9.38414 2.93225 9.24168 2.29371 8.75438 1.71551C8.21717 1.07897 7.24757 0.806458 6.00686 0.806458H2.40494C2.1515 0.806458 1.93531 0.998258 1.89614 1.25919L0.395865 11.1549C0.366297 11.3507 0.511449 11.5273 0.701145 11.5273H2.92488L3.48322 7.84113L4.08379 3.88286Z" fill="white"/>
</svg>
