<svg width="10" height="9" viewBox="0 0 10 9" fill="none" xmlns="http://www.w3.org/2000/svg">
<path d="M8.71194 2.65909C8.71194 3.05303 8.57143 3.39015 8.2904 3.67045C8.00937 3.95076 7.66589 4.09091 7.25995 4.09091C6.85402 4.09091 6.50664 3.95076 6.2178 3.67045C5.92896 3.39015 5.78454 3.05303 5.78454 2.65909C5.78454 2.26515 5.92896 1.92803 6.2178 1.64773C6.50664 1.36742 6.85402 1.22727 7.25995 1.22727C7.66589 1.22727 8.00937 1.36742 8.2904 1.64773C8.57143 1.92803 8.71194 2.26515 8.71194 2.65909ZM0 7.20455V4.70455L1.52225 5.29545C1.8345 5.11364 2.18579 5.02273 2.57611 5.02273H2.78689L4.49649 2.63636C4.49649 1.90909 4.76581 1.28788 5.30445 0.772727C5.84309 0.257576 6.48712 0 7.23653 0C8.00156 0 8.6534 0.261364 9.19204 0.784091C9.73068 1.30682 10 1.93561 10 2.67045C10 3.4053 9.73068 4.03409 9.19204 4.55682C8.6534 5.07955 8.00156 5.34091 7.23653 5.34091L4.61358 7.20455C4.56674 7.7197 4.34817 8.14773 3.95785 8.48864C3.56753 8.82955 3.10695 9 2.57611 9C2.0765 9 1.63934 8.85227 1.26464 8.55682C0.88993 8.26136 0.655738 7.88636 0.562061 7.43182L0 7.20455ZM7.24824 0.863636C6.74083 0.863636 6.30757 1.04167 5.94848 1.39773C5.58938 1.75379 5.40984 2.17803 5.40984 2.67045C5.40984 3.16288 5.58938 3.58333 5.94848 3.93182C6.30757 4.2803 6.74083 4.45455 7.24824 4.45455C7.75566 4.45455 8.18891 4.2803 8.54801 3.93182C8.9071 3.58333 9.08665 3.16288 9.08665 2.67045C9.08665 2.17803 8.9071 1.75379 8.54801 1.39773C8.18891 1.04167 7.75566 0.863636 7.24824 0.863636ZM2.57611 5.54545C2.46682 5.54545 2.35753 5.56061 2.24824 5.59091L2.88056 5.81818C3.17721 5.93939 3.39188 6.14773 3.52459 6.44318C3.6573 6.73864 3.6612 7.03788 3.5363 7.34091C3.4114 7.64394 3.19672 7.85606 2.89227 7.97727C2.58782 8.09848 2.27947 8.10606 1.96721 8C1.87354 7.95455 1.74473 7.89773 1.5808 7.82955C1.41686 7.76136 1.30367 7.7197 1.24122 7.70455C1.52225 8.2197 1.96721 8.47727 2.57611 8.47727C2.98205 8.47727 3.33333 8.33333 3.62998 8.04545C3.92662 7.75758 4.07494 7.41288 4.07494 7.01136C4.07494 6.60985 3.92662 6.26515 3.62998 5.97727C3.33333 5.68939 2.98205 5.54545 2.57611 5.54545Z" fill="#7D7D7F"/>
</svg>
