<svg width="20" height="20" viewBox="0 0 20 20" fill="none" xmlns="http://www.w3.org/2000/svg">
<path fill-rule="evenodd" clip-rule="evenodd" d="M17.551 10.0006C17.5516 11.7188 16.9742 13.3851 15.9155 14.7208C14.8568 16.0566 13.3809 16.9807 11.7347 17.3387C10.0885 17.6966 8.37181 17.4667 6.87176 16.6874C5.37171 15.9081 4.17927 14.6266 3.49388 13.0573L1.22286 13.999C2.12314 16.1047 3.70618 17.8299 5.70583 18.8844C7.70547 19.9389 9.9998 20.2584 12.2031 19.7892C14.4063 19.3201 16.3842 18.0909 17.8041 16.3082C19.2241 14.5255 19.9995 12.2982 20 10.0006C20.0001 7.91344 19.3605 5.87858 18.1708 4.18117C16.9811 2.48377 15.301 1.2089 13.3659 0.535234C11.4308 -0.138432 9.33775 -0.177129 7.38004 0.424567C5.42232 1.02626 3.69809 2.23819 2.44898 3.89051V0.83381H0V7.50055L1.22449 8.75056H6.93878V6.25053H3.84C4.64834 4.81997 5.89661 3.70177 7.3911 3.06945C8.8856 2.43713 10.5428 2.32605 12.1054 2.75344C13.6681 3.18084 15.0489 4.12281 16.0335 5.43319C17.0181 6.74357 17.5516 8.34908 17.551 10.0006Z" fill="#DCDCE2"/>
</svg>
