<svg width="16" height="16" viewBox="0 0 16 16" fill="none" xmlns="http://www.w3.org/2000/svg">
<path fill-rule="evenodd" clip-rule="evenodd" d="M13.6586 10C13.8797 9.37444 14 8.70127 14 8C14 7.29873 13.8797 6.62556 13.6586 6H12.0322C12.3316 6.60248 12.5 7.28158 12.5 8C12.5 8.71842 12.3316 9.39752 12.0322 10H13.6586ZM15.6755 10.2627C14.9221 12.8227 12.9226 14.8492 10.379 15.6403C10.3403 15.6524 10.3016 15.6641 10.2627 15.6755C9.5452 15.8867 8.78583 16 8 16C7.21417 16 6.4548 15.8867 5.73733 15.6755C3.17729 14.9221 1.15083 12.9226 0.359664 10.379C0.347646 10.3403 0.335913 10.3016 0.324467 10.2627C0.113304 9.54521 0 8.78583 0 8C0 7.21417 0.113304 6.4548 0.324467 5.73734C1.07794 3.17729 3.07737 1.15083 5.62104 0.359664C5.65968 0.347646 5.69845 0.335913 5.73734 0.324467C6.4548 0.113304 7.21417 0 8 0C8.78584 0 9.5452 0.113302 10.2627 0.324467C12.8227 1.07794 14.8492 3.07737 15.6403 5.62104C15.6524 5.65968 15.6641 5.69845 15.6755 5.73733C15.8867 6.4548 16 7.21417 16 8C16 8.78584 15.8867 9.5452 15.6755 10.2627ZM10 2.34141C9.37444 2.12031 8.70127 2 8 2C7.29873 2 6.62556 2.12031 6 2.34141V3.96776C6.60248 3.66835 7.28158 3.5 8 3.5C8.71842 3.5 9.39752 3.66835 10 3.96776V2.34141ZM3.96776 6C3.66835 6.60248 3.5 7.28158 3.5 8C3.5 8.71842 3.66835 9.39752 3.96776 10H2.34141C2.12031 9.37444 2 8.70127 2 8C2 7.29873 2.12031 6.62556 2.34141 6H3.96776ZM6 13.6586C6.62556 13.8797 7.29873 14 8 14C8.70127 14 9.37444 13.8797 10 13.6586V12.0322C9.39752 12.3316 8.71842 12.5 8 12.5C7.28158 12.5 6.60248 12.3316 6 12.0322V13.6586ZM8 10.5C9.38071 10.5 10.5 9.38071 10.5 8C10.5 6.61929 9.38071 5.5 8 5.5C6.61929 5.5 5.5 6.61929 5.5 8C5.5 9.38071 6.61929 10.5 8 10.5Z" fill="#DCDCE2"/>
</svg>
