<svg width="18" height="6" viewBox="0 0 18 6" fill="none" xmlns="http://www.w3.org/2000/svg">
<path d="M9.30917 1.91817C9.2989 2.75395 10.0307 3.22038 10.5821 3.49767C11.1485 3.78222 11.3388 3.96466 11.3366 4.21908C11.3323 4.60852 10.8848 4.78036 10.4659 4.78706C9.73509 4.79877 9.31025 4.58341 8.97243 4.4205L8.70921 5.69202C9.04811 5.85326 9.67563 5.99386 10.3264 6C11.8539 6 12.8533 5.22168 12.8587 4.01488C12.8646 2.48336 10.8064 2.39855 10.8204 1.71397C10.8253 1.50642 11.0172 1.28492 11.4377 1.22857C11.6458 1.20011 12.2203 1.17835 12.8717 1.488L13.1273 0.25776C12.7771 0.12609 12.3268 0 11.7663 0C10.3286 0 9.31728 0.78892 9.30917 1.91817V1.91817ZM15.5839 0.106011C15.305 0.106011 15.0699 0.273941 14.965 0.531711L12.783 5.90961H14.3094L14.6132 5.04314H16.4785L16.6547 5.90961H18L16.826 0.106011H15.5839ZM15.7974 1.6738L16.2379 3.85308H15.0315L15.7974 1.6738ZM7.45847 0.106011L6.2553 5.90961H7.70981L8.91244 0.106011H7.45847ZM5.30671 0.106011L3.79275 4.05616L3.18035 0.697421C3.10846 0.322481 2.82469 0.106011 2.50958 0.106011H0.0345926L0 0.274501C0.508078 0.388321 1.08534 0.571881 1.43505 0.768271C1.64909 0.888231 1.71017 0.993121 1.78043 1.27822L2.94036 5.90961H4.47757L6.83418 0.106011H5.30671Z" fill="white"/>
</svg>
