<svg width="32" height="19" viewBox="0 0 32 19" fill="none" xmlns="http://www.w3.org/2000/svg">
<path d="M22.3777 18.9883C21.7794 18.9147 21.211 18.6123 20.7907 18.1439C20.3108 17.6091 20.0684 16.9652 20.0683 16.2249C20.0683 15.8865 20.0973 15.6782 20.1861 15.3818C20.3665 14.7795 20.6736 14.3525 21.2412 13.915C22.963 12.5876 25.2825 8.63166 26.3149 5.2615C26.6052 4.31361 26.7521 3.58212 26.7896 2.89723C26.8138 2.45362 26.8593 2.12612 26.9294 1.89015C27.1921 1.00622 27.8898 0.31477 28.7505 0.0854723C29.3742 -0.0806924 30.0082 -0.00362432 30.5839 0.308329C31.3341 0.71483 31.8535 1.48377 31.9764 2.36997C32.0165 2.65915 32.0042 3.11412 31.9494 3.3661C31.8348 3.89285 31.6164 4.31584 31.2645 4.69242C31.1704 4.79308 31.0259 4.92344 30.9433 4.98211C30.397 5.37043 29.7383 6.07709 29.1116 6.94742C27.5084 9.17364 26.0575 12.2539 25.493 14.6294C25.323 15.3448 25.2515 15.8716 25.2494 16.4245C25.2474 16.9465 25.0435 17.5283 24.7064 17.9736C24.3277 18.4738 23.7911 18.8171 23.1813 18.9493C22.9676 18.9956 22.5873 19.0141 22.3777 18.9883ZM8.88976 18.9585C7.92074 18.782 7.12055 18.0471 6.84626 17.0817C6.7778 16.8408 6.75191 16.6744 6.72229 16.2848C6.65599 15.4128 6.60186 15.0269 6.4704 14.4892C6.01653 12.6326 4.93703 10.1705 3.69729 8.16447C3.0889 7.18003 2.54656 6.44288 1.96702 5.81265C1.63377 5.45026 1.40426 5.23612 1.13642 5.0377C0.878669 4.84676 0.74462 4.71994 0.584258 4.51532C0.327155 4.18727 0.170982 3.86382 0.0679031 3.4459C0.0189603 3.24747 0.0100475 3.17061 0.00196988 2.87728C-0.0109107 2.40954 0.0381423 2.09911 0.185603 1.71517C0.509825 0.871001 1.20437 0.255019 2.06228 0.0507753C2.31686 -0.00983148 2.83841 -0.0153034 3.09603 0.0399294C3.62638 0.153632 4.05876 0.401237 4.44347 0.811551C4.68499 1.06915 4.83331 1.29 4.94643 1.56047C5.1108 1.95348 5.16963 2.24282 5.19388 2.77752C5.2541 4.10507 5.79367 5.93233 6.73295 7.98962C7.33078 9.29904 8.28273 10.9989 8.61331 11.3473C8.92814 11.679 9.34793 11.8742 9.80114 11.8994C10.2466 11.9242 10.6608 11.7936 10.9997 11.5215C11.2179 11.3463 11.7745 10.6077 12.1791 9.95616C12.9308 8.74597 13.3712 7.63313 13.4497 6.74571C13.565 5.44117 14.376 4.46424 15.571 4.19021C15.6917 4.16255 15.8087 4.15439 16.0752 4.15506C16.3832 4.15583 16.446 4.16187 16.6329 4.20872C17.6608 4.4664 18.4111 5.2843 18.6293 6.38502C18.6833 6.6579 18.6871 7.1406 18.6373 7.41628C18.5387 7.96204 18.3088 8.4404 17.9556 8.8352C17.664 9.16104 17.3673 9.3627 16.8758 9.56921C15.7107 10.0587 14.2635 11.5095 13.182 13.2721C12.5181 14.3542 12.119 15.3333 11.9659 16.2549C11.8426 16.9976 11.7997 17.1593 11.6386 17.4873C11.498 17.7737 11.3544 17.9779 11.1333 18.206C10.7438 18.6079 10.2771 18.8618 9.75416 18.9563C9.54182 18.9947 9.09453 18.9958 8.88976 18.9585V18.9585Z" fill="white"/>
</svg>
